<svg xmlns="http://www.w3.org/2000/svg" viewBox="0 0 120 120">
  <defs>
    <linearGradient id="flowGradient" x1="0%" y1="0%" x2="100%" y2="100%">
      <stop offset="0%" style="stop-color:#6366f1;stop-opacity:1" />
      <stop offset="50%" style="stop-color:#8b5cf6;stop-opacity:1" />
      <stop offset="100%" style="stop-color:#ec4899;stop-opacity:1" />
    </linearGradient>
    <linearGradient id="nodeGradient" x1="0%" y1="0%" x2="100%" y2="100%">
      <stop offset="0%" style="stop-color:#818cf8;stop-opacity:1" />
      <stop offset="100%" style="stop-color:#a78bfa;stop-opacity:1" />
    </linearGradient>
    <filter id="glow">
      <feGaussianBlur stdDeviation="2" result="coloredBlur"/>
      <feMerge>
        <feMergeNode in="coloredBlur"/>
        <feMergeNode in="SourceGraphic"/>
      </feMerge>
    </filter>
  </defs>
  
  <circle cx="60" cy="60" r="55" fill="none" stroke="url(#flowGradient)" stroke-width="1" opacity="0.2"/>
  <circle cx="60" cy="60" r="45" fill="none" stroke="url(#flowGradient)" stroke-width="1" opacity="0.3"/>
  
  <path d="M35 60 Q45 45 60 50 Q75 55 85 40" fill="none" stroke="url(#flowGradient)" stroke-width="2" stroke-linecap="round" filter="url(#glow)"/>
  <path d="M35 60 Q45 75 60 70 Q75 65 85 80" fill="none" stroke="url(#flowGradient)" stroke-width="2" stroke-linecap="round" filter="url(#glow)"/>
  <path d="M25 60 Q30 60 35 60" fill="none" stroke="#6366f1" stroke-width="2" stroke-linecap="round" opacity="0.6"/>
  
  <circle cx="25" cy="60" r="6" fill="#6366f1" filter="url(#glow)"/>
  <circle cx="25" cy="60" r="3" fill="white"/>
  
  <circle cx="60" cy="50" r="8" fill="url(#nodeGradient)" filter="url(#glow)"/>
  <circle cx="60" cy="70" r="8" fill="url(#nodeGradient)" filter="url(#glow)"/>
  
  <circle cx="60" cy="50" r="4" fill="white" opacity="0.8"/>
  <circle cx="60" cy="70" r="4" fill="white" opacity="0.8"/>
  
  <circle cx="85" cy="40" r="10" fill="#ec4899" filter="url(#glow)"/>
  <circle cx="85" cy="80" r="10" fill="#ec4899" filter="url(#glow)"/>
  
  <path d="M80 38 L85 43 L95 33" fill="none" stroke="white" stroke-width="2" stroke-linecap="round" stroke-linejoin="round"/>
  <path d="M80 78 L85 83 L95 73" fill="none" stroke="white" stroke-width="2" stroke-linecap="round" stroke-linejoin="round"/>
  
  <circle cx="85" cy="40" r="4" fill="white" opacity="0.6"/>
  <circle cx="85" cy="80" r="4" fill="white" opacity="0.6"/>
  
  <circle cx="60" cy="60" r="12" fill="#1e1b4b"/>
  <path d="M56 60 L58 64 L64 56" fill="none" stroke="url(#flowGradient)" stroke-width="2" stroke-linecap="round" stroke-linejoin="round"/>
</svg>